<svg width="169" height="32" viewBox="0 0 169 32" fill="none" xmlns="http://www.w3.org/2000/svg">
<path d="M17.3097 10.2756C17.196 9.12973 16.7083 8.23958 15.8466 7.60511C14.9848 6.97064 13.8153 6.65341 12.3381 6.65341C11.3343 6.65341 10.4867 6.79545 9.79545 7.07955C9.10417 7.35417 8.57386 7.73769 8.20455 8.23011C7.8447 8.72254 7.66477 9.28125 7.66477 9.90625C7.64583 10.4271 7.75473 10.8816 7.99148 11.2699C8.23769 11.6581 8.57386 11.9943 9 12.2784C9.42614 12.553 9.91856 12.7945 10.4773 13.0028C11.036 13.2017 11.6326 13.3722 12.267 13.5142L14.8807 14.1392C16.1496 14.4233 17.3144 14.8021 18.375 15.2756C19.4356 15.7491 20.3542 16.3314 21.1307 17.0227C21.9072 17.714 22.5085 18.5284 22.9347 19.4659C23.3703 20.4034 23.5928 21.4782 23.6023 22.6903C23.5928 24.4706 23.1383 26.0142 22.2386 27.321C21.3485 28.6184 20.0606 29.6269 18.375 30.3466C16.6989 31.0568 14.6771 31.4119 12.3097 31.4119C9.96117 31.4119 7.91572 31.0521 6.1733 30.3324C4.44034 29.6127 3.08617 28.5473 2.1108 27.1364C1.14489 25.7159 0.638258 23.9593 0.590909 21.8665H6.54261C6.6089 22.8419 6.88826 23.6562 7.38068 24.3097C7.88258 24.9536 8.55019 25.4413 9.38352 25.7727C10.2263 26.0947 11.178 26.2557 12.2386 26.2557C13.2803 26.2557 14.1847 26.1042 14.9517 25.8011C15.7282 25.4981 16.3295 25.0767 16.7557 24.5369C17.1818 23.9972 17.3949 23.3769 17.3949 22.6761C17.3949 22.0227 17.2008 21.4735 16.8125 21.0284C16.4337 20.5833 15.875 20.2045 15.1364 19.892C14.4072 19.5795 13.5123 19.2955 12.4517 19.0398L9.28409 18.2443C6.83144 17.6477 4.89489 16.715 3.47443 15.446C2.05398 14.1771 1.34848 12.4678 1.35795 10.3182C1.34848 8.55682 1.81723 7.01799 2.7642 5.7017C3.72064 4.38542 5.0322 3.35795 6.69886 2.61932C8.36553 1.88068 10.2595 1.51136 12.3807 1.51136C14.5398 1.51136 16.4242 1.88068 18.0341 2.61932C19.6534 3.35795 20.9129 4.38542 21.8125 5.7017C22.7121 7.01799 23.1761 8.54261 23.2045 10.2756H17.3097ZM33.1087 24.7216L33.1229 17.4631H34.0036L40.9922 9.18182H47.9382L38.549 20.1477H37.1143L33.1087 24.7216ZM27.6257 31V1.90909H33.6768V31H27.6257ZM41.2621 31L34.8416 21.4972L38.8757 17.2216L48.3501 31H41.2621ZM50.907 31V9.18182H56.9581V31H50.907ZM53.9467 6.36932C53.0471 6.36932 52.2753 6.07102 51.6314 5.47443C50.9969 4.86837 50.6797 4.14394 50.6797 3.30114C50.6797 2.4678 50.9969 1.75284 51.6314 1.15625C52.2753 0.550188 53.0471 0.247158 53.9467 0.247158C54.8464 0.247158 55.6134 0.550188 56.2479 1.15625C56.8918 1.75284 57.2138 2.4678 57.2138 3.30114C57.2138 4.14394 56.8918 4.86837 56.2479 5.47443C55.6134 6.07102 54.8464 6.36932 53.9467 6.36932ZM67.8565 18.3864V31H61.8054V9.18182H67.5724V13.0312H67.8281C68.3111 11.7623 69.1207 10.7585 70.2571 10.0199C71.3935 9.27178 72.7713 8.89773 74.3906 8.89773C75.9058 8.89773 77.2268 9.22917 78.3537 9.89205C79.4806 10.5549 80.3565 11.5019 80.9815 12.733C81.6065 13.9545 81.919 15.4129 81.919 17.108V31H75.8679V18.1875C75.8774 16.8523 75.5365 15.8106 74.8452 15.0625C74.1539 14.3049 73.2022 13.9261 71.9901 13.9261C71.1757 13.9261 70.456 14.1013 69.831 14.4517C69.2154 14.8021 68.7325 15.3134 68.3821 15.9858C68.0412 16.6487 67.866 17.4489 67.8565 18.3864ZM96.5462 31.4261C94.3113 31.4261 92.389 30.9527 90.7791 30.0057C89.1787 29.0492 87.9477 27.7235 87.0859 26.0284C86.2337 24.3333 85.8075 22.3826 85.8075 20.1761C85.8075 17.9413 86.2384 15.9811 87.1001 14.2955C87.9714 12.6004 89.2071 11.2794 90.8075 10.3324C92.4079 9.37595 94.3113 8.89773 96.5178 8.89773C98.4212 8.89773 100.088 9.24337 101.518 9.93466C102.948 10.6259 104.079 11.5966 104.913 12.8466C105.746 14.0966 106.205 15.5644 106.29 17.25H100.58C100.419 16.161 99.9931 15.285 99.3018 14.6222C98.62 13.9498 97.7251 13.6136 96.6172 13.6136C95.6797 13.6136 94.8606 13.8693 94.1598 14.3807C93.4685 14.8826 92.9287 15.6165 92.5405 16.5824C92.1522 17.5483 91.9581 18.7178 91.9581 20.0909C91.9581 21.483 92.1475 22.6667 92.5263 23.642C92.9145 24.6174 93.459 25.3608 94.1598 25.8722C94.8606 26.3835 95.6797 26.6392 96.6172 26.6392C97.3085 26.6392 97.9287 26.4972 98.478 26.2131C99.0367 25.929 99.496 25.517 99.8558 24.9773C100.225 24.428 100.467 23.7699 100.58 23.0028H106.29C106.196 24.6695 105.741 26.1373 104.927 27.4062C104.122 28.6657 103.009 29.6506 101.589 30.3608C100.168 31.071 98.4875 31.4261 96.5462 31.4261ZM116.386 31.4119C114.994 31.4119 113.754 31.1705 112.665 30.6875C111.576 30.1951 110.714 29.4706 110.08 28.5142C109.455 27.5483 109.142 26.3456 109.142 24.9062C109.142 23.6941 109.365 22.6761 109.81 21.8523C110.255 21.0284 110.861 20.3655 111.628 19.8636C112.395 19.3617 113.266 18.983 114.241 18.7273C115.226 18.4716 116.259 18.2917 117.338 18.1875C118.607 18.0549 119.63 17.9318 120.406 17.8182C121.183 17.6951 121.746 17.5152 122.097 17.2784C122.447 17.0417 122.622 16.6913 122.622 16.2273V16.142C122.622 15.2424 122.338 14.5464 121.77 14.054C121.211 13.5616 120.416 13.3153 119.384 13.3153C118.295 13.3153 117.428 13.5568 116.784 14.0398C116.14 14.5133 115.714 15.1098 115.506 15.8295L109.909 15.375C110.193 14.0492 110.752 12.9034 111.585 11.9375C112.419 10.9621 113.493 10.214 114.81 9.69318C116.135 9.16288 117.67 8.89773 119.412 8.89773C120.624 8.89773 121.784 9.03977 122.892 9.32386C124.009 9.60795 124.999 10.0483 125.861 10.6449C126.732 11.2415 127.419 12.0085 127.92 12.946C128.422 13.8741 128.673 14.9867 128.673 16.2841V31H122.935V27.9744H122.764C122.414 28.6562 121.945 29.2576 121.358 29.7784C120.771 30.2898 120.065 30.6922 119.241 30.9858C118.418 31.2699 117.466 31.4119 116.386 31.4119ZM118.119 27.2358C119.009 27.2358 119.795 27.0606 120.477 26.7102C121.159 26.3504 121.694 25.8674 122.082 25.2614C122.471 24.6553 122.665 23.9687 122.665 23.2017V20.8864C122.475 21.0095 122.215 21.1231 121.884 21.2273C121.562 21.322 121.197 21.4119 120.79 21.4972C120.383 21.5729 119.975 21.6439 119.568 21.7102C119.161 21.767 118.792 21.8191 118.46 21.8665C117.75 21.9706 117.13 22.1364 116.599 22.3636C116.069 22.5909 115.657 22.8987 115.364 23.2869C115.07 23.6657 114.923 24.1392 114.923 24.7074C114.923 25.5312 115.222 26.161 115.818 26.5966C116.424 27.0227 117.191 27.2358 118.119 27.2358ZM133.368 31V9.18182H139.234V12.9886H139.462C139.859 11.6345 140.527 10.6117 141.464 9.92045C142.402 9.2197 143.482 8.86932 144.703 8.86932C145.006 8.86932 145.333 8.88826 145.683 8.92614C146.034 8.96402 146.341 9.0161 146.607 9.08239V14.4517C146.322 14.3665 145.929 14.2907 145.428 14.2244C144.926 14.1581 144.466 14.125 144.05 14.125C143.16 14.125 142.364 14.3191 141.663 14.7074C140.972 15.0862 140.423 15.6165 140.016 16.2983C139.618 16.9801 139.419 17.7661 139.419 18.6562V31H133.368ZM158.663 31.4261C156.418 31.4261 154.487 30.9716 152.867 30.0625C151.257 29.1439 150.017 27.8466 149.146 26.1705C148.274 24.4848 147.839 22.4915 147.839 20.1903C147.839 17.946 148.274 15.9763 149.146 14.2812C150.017 12.5862 151.243 11.2652 152.825 10.3182C154.415 9.37121 156.281 8.89773 158.421 8.89773C159.861 8.89773 161.201 9.12973 162.441 9.59375C163.691 10.0483 164.78 10.7348 165.708 11.6534C166.646 12.572 167.375 13.7273 167.896 15.1193C168.416 16.5019 168.677 18.1212 168.677 19.9773V21.6392H150.254V17.8892H162.981C162.981 17.018 162.791 16.2462 162.413 15.5739C162.034 14.9015 161.508 14.3759 160.836 13.9972C160.173 13.6089 159.401 13.4148 158.521 13.4148C157.602 13.4148 156.788 13.6278 156.077 14.054C155.377 14.4706 154.827 15.0341 154.43 15.7443C154.032 16.4451 153.828 17.2263 153.819 18.0881V21.6534C153.819 22.733 154.018 23.6657 154.415 24.4517C154.823 25.2377 155.396 25.8438 156.134 26.2699C156.873 26.696 157.749 26.9091 158.762 26.9091C159.434 26.9091 160.05 26.8144 160.609 26.625C161.167 26.4356 161.646 26.1515 162.043 25.7727C162.441 25.3939 162.744 24.9299 162.952 24.3807L168.549 24.75C168.265 26.0947 167.683 27.2689 166.802 28.2727C165.931 29.267 164.804 30.0436 163.421 30.6023C162.048 31.1515 160.462 31.4261 158.663 31.4261Z" fill="#FF8DAA"/>
</svg>
